<?xml version="1.0" encoding="UTF-8" standalone="no"?>
<!DOCTYPE svg PUBLIC "-//W3C//DTD SVG 1.1//EN"
 "http://www.w3.org/Graphics/SVG/1.1/DTD/svg11.dtd">
<!-- Generated by graphviz version 2.38.0 (20140413.2041)
 -->
<!-- Title: vCloud Pages: 1 -->
<svg width="1539pt" height="572pt"
 viewBox="0.00 0.00 1539.13 571.99" xmlns="http://www.w3.org/2000/svg" xmlns:xlink="http://www.w3.org/1999/xlink">
<g id="graph0" class="graph" transform="scale(1 1) rotate(0) translate(4 567.987)">
<title>vCloud</title>
<polygon fill="white" stroke="none" points="-4,4 -4,-567.987 1535.13,-567.987 1535.13,4 -4,4"/>
<!-- org -->
<g id="node1" class="node"><title>org</title>
<polygon fill="#c0c0c0" stroke="black" points="86.3659,-23.5623 58.1293,-36 29.8927,-23.5623 29.919,-3.43769 86.3395,-3.43769 86.3659,-23.5623"/>
<text text-anchor="middle" x="58.1293" y="-14.3" font-family="Times,serif" font-size="14.00">org</text>
</g>
<!-- vDC -->
<g id="node2" class="node"><title>vDC</title>
<polygon fill="#c0c0c0" stroke="black" points="24.1442,-84.4377 58.1293,-72 92.1144,-84.4377 92.0826,-104.562 24.1759,-104.562 24.1442,-84.4377"/>
<text text-anchor="middle" x="58.1293" y="-86.3" font-family="Times,serif" font-size="14.00">vDC</text>
</g>
<!-- org&#45;&gt;vDC -->
<g id="edge1" class="edge"><title>org&#45;&gt;vDC</title>
<path fill="none" stroke="black" d="M58.1293,-36.3034C58.1293,-47.1537 58.1293,-61.0833 58.1293,-71.8957"/>
</g>
<!-- vSE -->
<g id="node3" class="node"><title>vSE</title>
<ellipse fill="#c0c0c0" stroke="black" cx="58.1293" cy="-219.494" rx="25.2169" ry="25.2169"/>
<ellipse fill="none" stroke="black" cx="58.1293" cy="-219.494" rx="29.1963" ry="29.1963"/>
<text text-anchor="middle" x="58.1293" y="-215.794" font-family="Times,serif" font-size="14.00">vSE</text>
</g>
<!-- vDC&#45;&gt;vSE -->
<g id="edge2" class="edge"><title>vDC&#45;&gt;vSE</title>
<path fill="none" stroke="black" d="M58.1293,-104.644C58.1293,-124.943 58.1293,-163.553 58.1293,-190.139"/>
</g>
<!-- network -->
<g id="node4" class="node"><title>network</title>
<polygon fill="#c0c0c0" stroke="black" points="116.388,-366.987 23.7113,-366.987 -0.129579,-330.987 92.5472,-330.987 116.388,-366.987"/>
<text text-anchor="middle" x="58.1293" y="-345.287" font-family="Times,serif" font-size="14.00">network</text>
</g>
<!-- vSE&#45;&gt;network -->
<g id="edge3" class="edge"><title>vSE&#45;&gt;network</title>
<path fill="none" stroke="black" d="M58.1293,-249.106C58.1293,-274.214 58.1293,-309.899 58.1293,-330.827"/>
</g>
<!-- vApp -->
<g id="node5" class="node"><title>vApp</title>
<polygon fill="#c0c0c0" stroke="black" points="81.6293,-470.987 34.6293,-470.987 34.6293,-423.987 81.6293,-423.987 81.6293,-470.987"/>
<polyline fill="none" stroke="black" points="46.6293,-470.987 34.6293,-458.987 "/>
<polyline fill="none" stroke="black" points="34.6293,-435.987 46.6293,-423.987 "/>
<polyline fill="none" stroke="black" points="69.6293,-423.987 81.6293,-435.987 "/>
<polyline fill="none" stroke="black" points="81.6293,-458.987 69.6293,-470.987 "/>
<text text-anchor="middle" x="58.1293" y="-443.787" font-family="Times,serif" font-size="14.00">vApp</text>
</g>
<!-- network&#45;&gt;vApp -->
<g id="edge4" class="edge"><title>network&#45;&gt;vApp</title>
<path fill="none" stroke="black" d="M58.1293,-367.24C58.1293,-383.07 58.1293,-406.619 58.1293,-423.935"/>
</g>
<!-- VM -->
<g id="node6" class="node"><title>VM</title>
<polygon fill="#c0c0c0" stroke="black" points="85.1293,-563.987 31.1293,-563.987 31.1293,-527.987 85.1293,-527.987 85.1293,-563.987"/>
<text text-anchor="middle" x="58.1293" y="-542.287" font-family="Times,serif" font-size="14.00">VM</text>
</g>
<!-- vApp&#45;&gt;VM -->
<g id="edge5" class="edge"><title>vApp&#45;&gt;VM</title>
<path fill="none" stroke="black" d="M58.1293,-471.356C58.1293,-488.634 58.1293,-511.982 58.1293,-527.716"/>
</g>
<!-- Org1 -->
<g id="node7" class="node"><title>Org1</title>
<polygon fill="none" stroke="black" points="688.888,-23.5623 634.129,-36 579.37,-23.5623 579.421,-3.43769 688.837,-3.43769 688.888,-23.5623"/>
<text text-anchor="middle" x="634.129" y="-14.3" font-family="Times,serif" font-size="14.00">Main org</text>
</g>
<!-- urn_vcloud_vdc_ce6249ef_6ac0_49e8_a113_73829ad743a1 -->
<g id="node9" class="node"><title>urn_vcloud_vdc_ce6249ef_6ac0_49e8_a113_73829ad743a1</title>
<polygon fill="none" stroke="black" points="533.786,-84.4377 634.129,-72 734.473,-84.4377 734.379,-104.562 533.88,-104.562 533.786,-84.4377"/>
<text text-anchor="middle" x="634.129" y="-86.3" font-family="Times,serif" font-size="14.00">First VDC for Org1</text>
</g>
<!-- Org1&#45;&gt;urn_vcloud_vdc_ce6249ef_6ac0_49e8_a113_73829ad743a1 -->
<g id="edge6" class="edge"><title>Org1:n&#45;&gt;urn_vcloud_vdc_ce6249ef_6ac0_49e8_a113_73829ad743a1:s</title>
<path fill="none" stroke="black" d="M634.129,-36C634.129,-36 634.129,-72 634.129,-72"/>
</g>
<!-- Org2 -->
<g id="node8" class="node"><title>Org2</title>
<polygon fill="none" stroke="black" points="1401.49,-23.5623 1346.13,-36 1290.76,-23.5623 1290.82,-3.43769 1401.44,-3.43769 1401.49,-23.5623"/>
<text text-anchor="middle" x="1346.13" y="-14.3" font-family="Times,serif" font-size="14.00">Other org</text>
</g>
<!-- urn_vcloud_vdc_ce6249ef_6ac0_49e8_a113_928ad3f28482 -->
<g id="node10" class="node"><title>urn_vcloud_vdc_ce6249ef_6ac0_49e8_a113_928ad3f28482</title>
<polygon fill="none" stroke="black" points="1245.79,-84.4377 1346.13,-72 1446.47,-84.4377 1446.38,-104.562 1245.88,-104.562 1245.79,-84.4377"/>
<text text-anchor="middle" x="1346.13" y="-86.3" font-family="Times,serif" font-size="14.00">First VDC for Org2</text>
</g>
<!-- Org2&#45;&gt;urn_vcloud_vdc_ce6249ef_6ac0_49e8_a113_928ad3f28482 -->
<g id="edge7" class="edge"><title>Org2:n&#45;&gt;urn_vcloud_vdc_ce6249ef_6ac0_49e8_a113_928ad3f28482:s</title>
<path fill="none" stroke="black" d="M1346.13,-36C1346.13,-36 1346.13,-72 1346.13,-72"/>
</g>
<!-- urn_vcloud_gateway_99a8652b_f8e5_4322_842a_83jafb882ae1 -->
<g id="node11" class="node"><title>urn_vcloud_gateway_99a8652b_f8e5_4322_842a_83jafb882ae1</title>
<ellipse fill="none" stroke="black" cx="423.129" cy="-219.494" rx="46.6085" ry="46.6085"/>
<ellipse fill="none" stroke="black" cx="423.129" cy="-219.494" rx="50.5925" ry="50.5925"/>
<text text-anchor="middle" x="423.129" y="-215.794" font-family="Times,serif" font-size="14.00">Vshield_2</text>
</g>
<!-- urn_vcloud_vdc_ce6249ef_6ac0_49e8_a113_73829ad743a1&#45;&gt;urn_vcloud_gateway_99a8652b_f8e5_4322_842a_83jafb882ae1 -->
<g id="edge8" class="edge"><title>urn_vcloud_vdc_ce6249ef_6ac0_49e8_a113_73829ad743a1:n&#45;&gt;urn_vcloud_gateway_99a8652b_f8e5_4322_842a_83jafb882ae1:s</title>
<path fill="none" stroke="black" d="M634.129,-106C634.129,-106 423.129,-167.494 423.129,-167.494"/>
</g>
<!-- urn_vcloud_gateway_a92eb7a6_bbcb_405a_8d55_3ce5704ec05c -->
<g id="node12" class="node"><title>urn_vcloud_gateway_a92eb7a6_bbcb_405a_8d55_3ce5704ec05c</title>
<ellipse fill="none" stroke="black" cx="634.129" cy="-219.494" rx="46.6085" ry="46.6085"/>
<ellipse fill="none" stroke="black" cx="634.129" cy="-219.494" rx="50.5925" ry="50.5925"/>
<text text-anchor="middle" x="634.129" y="-215.794" font-family="Times,serif" font-size="14.00">Vshield_1</text>
</g>
<!-- urn_vcloud_vdc_ce6249ef_6ac0_49e8_a113_73829ad743a1&#45;&gt;urn_vcloud_gateway_a92eb7a6_bbcb_405a_8d55_3ce5704ec05c -->
<g id="edge9" class="edge"><title>urn_vcloud_vdc_ce6249ef_6ac0_49e8_a113_73829ad743a1:n&#45;&gt;urn_vcloud_gateway_a92eb7a6_bbcb_405a_8d55_3ce5704ec05c:s</title>
<path fill="none" stroke="black" d="M634.129,-106C634.129,-106 634.129,-167.494 634.129,-167.494"/>
</g>
<!-- TESTNET3 -->
<g id="node20" class="node"><title>TESTNET3</title>
<polygon fill="#c0c0c0" stroke="black" points="1060.41,-366.987 935.882,-366.987 903.847,-330.987 1028.38,-330.987 1060.41,-366.987"/>
<text text-anchor="middle" x="982.129" y="-345.287" font-family="Times,serif" font-size="14.00">TESTNET3</text>
</g>
<!-- urn_vcloud_vdc_ce6249ef_6ac0_49e8_a113_73829ad743a1&#45;&gt;TESTNET3 -->
<g id="edge18" class="edge"><title>urn_vcloud_vdc_ce6249ef_6ac0_49e8_a113_73829ad743a1:n&#45;&gt;TESTNET3:s</title>
<path fill="none" stroke="black" stroke-dasharray="1,5" d="M634.129,-105C634.129,-105 982.129,-330.987 982.129,-330.987"/>
</g>
<!-- urn_vcloud_gateway_a92eb7a6_bbcb_405a_8d55_3ce5704ec05d -->
<g id="node13" class="node"><title>urn_vcloud_gateway_a92eb7a6_bbcb_405a_8d55_3ce5704ec05d</title>
<ellipse fill="none" stroke="black" cx="1346.13" cy="-219.494" rx="71.4876" ry="71.4876"/>
<ellipse fill="none" stroke="black" cx="1346.13" cy="-219.494" rx="75.4873" ry="75.4873"/>
<text text-anchor="middle" x="1346.13" y="-215.794" font-family="Times,serif" font-size="14.00">Vshield for Org2</text>
</g>
<!-- urn_vcloud_vdc_ce6249ef_6ac0_49e8_a113_928ad3f28482&#45;&gt;urn_vcloud_gateway_a92eb7a6_bbcb_405a_8d55_3ce5704ec05d -->
<g id="edge10" class="edge"><title>urn_vcloud_vdc_ce6249ef_6ac0_49e8_a113_928ad3f28482:n&#45;&gt;urn_vcloud_gateway_a92eb7a6_bbcb_405a_8d55_3ce5704ec05d:s</title>
<path fill="none" stroke="black" d="M1346.13,-106C1346.13,-106 1346.13,-144 1346.13,-144"/>
</g>
<!-- TESTNET2 -->
<g id="node14" class="node"><title>TESTNET2</title>
<polygon fill="none" stroke="black" points="290.412,-366.987 165.882,-366.987 133.847,-330.987 258.377,-330.987 290.412,-366.987"/>
<text text-anchor="middle" x="212.129" y="-345.287" font-family="Times,serif" font-size="14.00">TESTNET2</text>
</g>
<!-- urn_vcloud_gateway_99a8652b_f8e5_4322_842a_83jafb882ae1&#45;&gt;TESTNET2 -->
<g id="edge11" class="edge"><title>urn_vcloud_gateway_99a8652b_f8e5_4322_842a_83jafb882ae1:n&#45;&gt;TESTNET2:s</title>
<path fill="none" stroke="black" d="M423.129,-271.494C423.129,-271.494 212.129,-330.987 212.129,-330.987"/>
</g>
<!-- External network 1 -->
<g id="node15" class="node"><title>External network 1</title>
<polygon fill="none" stroke="black" points="538.241,-366.987 355.124,-366.987 308.018,-330.987 491.134,-330.987 538.241,-366.987"/>
<text text-anchor="middle" x="423.129" y="-345.287" font-family="Times,serif" font-size="14.00">External network 1</text>
</g>
<!-- urn_vcloud_gateway_99a8652b_f8e5_4322_842a_83jafb882ae1&#45;&gt;External network 1 -->
<g id="edge12" class="edge"><title>urn_vcloud_gateway_99a8652b_f8e5_4322_842a_83jafb882ae1:n&#45;&gt;External network 1:s</title>
<path fill="none" stroke="black" d="M423.129,-271.494C423.129,-271.494 423.129,-330.987 423.129,-330.987"/>
</g>
<!-- urn_vcloud_gateway_a92eb7a6_bbcb_405a_8d55_3ce5704ec05c&#45;&gt;External network 1 -->
<g id="edge13" class="edge"><title>urn_vcloud_gateway_a92eb7a6_bbcb_405a_8d55_3ce5704ec05c:n&#45;&gt;External network 1:s</title>
<path fill="none" stroke="black" d="M634.129,-271.494C634.129,-271.494 423.129,-330.987 423.129,-330.987"/>
</g>
<!-- TESTNET0 -->
<g id="node16" class="node"><title>TESTNET0</title>
<polygon fill="none" stroke="black" points="886.412,-366.987 761.882,-366.987 729.847,-330.987 854.377,-330.987 886.412,-366.987"/>
<text text-anchor="middle" x="808.129" y="-345.287" font-family="Times,serif" font-size="14.00">TESTNET0</text>
</g>
<!-- urn_vcloud_gateway_a92eb7a6_bbcb_405a_8d55_3ce5704ec05c&#45;&gt;TESTNET0 -->
<g id="edge14" class="edge"><title>urn_vcloud_gateway_a92eb7a6_bbcb_405a_8d55_3ce5704ec05c:n&#45;&gt;TESTNET0:s</title>
<path fill="none" stroke="black" d="M634.129,-271.494C634.129,-271.494 808.129,-330.987 808.129,-330.987"/>
</g>
<!-- TESTNET1 -->
<g id="node17" class="node"><title>TESTNET1</title>
<polygon fill="none" stroke="black" points="712.412,-366.987 587.882,-366.987 555.847,-330.987 680.377,-330.987 712.412,-366.987"/>
<text text-anchor="middle" x="634.129" y="-345.287" font-family="Times,serif" font-size="14.00">TESTNET1</text>
</g>
<!-- urn_vcloud_gateway_a92eb7a6_bbcb_405a_8d55_3ce5704ec05c&#45;&gt;TESTNET1 -->
<g id="edge15" class="edge"><title>urn_vcloud_gateway_a92eb7a6_bbcb_405a_8d55_3ce5704ec05c:n&#45;&gt;TESTNET1:s</title>
<path fill="none" stroke="black" d="M634.129,-271.494C634.129,-271.494 634.129,-330.987 634.129,-330.987"/>
</g>
<!-- TESTNET9 -->
<g id="node18" class="node"><title>TESTNET9</title>
<polygon fill="none" stroke="black" points="1337.41,-366.987 1212.88,-366.987 1180.85,-330.987 1305.38,-330.987 1337.41,-366.987"/>
<text text-anchor="middle" x="1259.13" y="-345.287" font-family="Times,serif" font-size="14.00">TESTNET9</text>
</g>
<!-- urn_vcloud_gateway_a92eb7a6_bbcb_405a_8d55_3ce5704ec05d&#45;&gt;TESTNET9 -->
<g id="edge16" class="edge"><title>urn_vcloud_gateway_a92eb7a6_bbcb_405a_8d55_3ce5704ec05d:n&#45;&gt;TESTNET9:s</title>
<path fill="none" stroke="black" d="M1346.13,-294.987C1346.13,-294.987 1259.13,-330.987 1259.13,-330.987"/>
</g>
<!-- TESTNET8 -->
<g id="node19" class="node"><title>TESTNET8</title>
<polygon fill="none" stroke="black" points="1511.41,-366.987 1386.88,-366.987 1354.85,-330.987 1479.38,-330.987 1511.41,-366.987"/>
<text text-anchor="middle" x="1433.13" y="-345.287" font-family="Times,serif" font-size="14.00">TESTNET8</text>
</g>
<!-- urn_vcloud_gateway_a92eb7a6_bbcb_405a_8d55_3ce5704ec05d&#45;&gt;TESTNET8 -->
<g id="edge17" class="edge"><title>urn_vcloud_gateway_a92eb7a6_bbcb_405a_8d55_3ce5704ec05d:n&#45;&gt;TESTNET8:s</title>
<path fill="none" stroke="black" d="M1346.13,-294.987C1346.13,-294.987 1433.13,-330.987 1433.13,-330.987"/>
</g>
<!-- urn_vcloud_vapp_82bc2974_aad1_4f38_8f10_0aab9c667077 -->
<g id="node22" class="node"><title>urn_vcloud_vapp_82bc2974_aad1_4f38_8f10_0aab9c667077</title>
<polygon fill="none" stroke="black" points="601.629,-482.987 530.629,-482.987 530.629,-411.987 601.629,-411.987 601.629,-482.987"/>
<polyline fill="none" stroke="black" points="542.629,-482.987 530.629,-470.987 "/>
<polyline fill="none" stroke="black" points="530.629,-423.987 542.629,-411.987 "/>
<polyline fill="none" stroke="black" points="589.629,-411.987 601.629,-423.987 "/>
<polyline fill="none" stroke="black" points="601.629,-470.987 589.629,-482.987 "/>
<text text-anchor="middle" x="566.129" y="-443.787" font-family="Times,serif" font-size="14.00">vApp_BE</text>
</g>
<!-- TESTNET2&#45;&gt;urn_vcloud_vapp_82bc2974_aad1_4f38_8f10_0aab9c667077 -->
<g id="edge23" class="edge"><title>TESTNET2:n&#45;&gt;urn_vcloud_vapp_82bc2974_aad1_4f38_8f10_0aab9c667077:s</title>
<path fill="none" stroke="black" d="M212.129,-366.987C212.129,-366.987 566.129,-410.487 566.129,-410.487"/>
</g>
<!-- urn_vcloud_vapp_82bc2974_aad1_4f38_8f10_0aab9c667076 -->
<g id="node21" class="node"><title>urn_vcloud_vapp_82bc2974_aad1_4f38_8f10_0aab9c667076</title>
<polygon fill="none" stroke="black" points="932.629,-481.987 863.629,-481.987 863.629,-412.987 932.629,-412.987 932.629,-481.987"/>
<polyline fill="none" stroke="black" points="875.629,-481.987 863.629,-469.987 "/>
<polyline fill="none" stroke="black" points="863.629,-424.987 875.629,-412.987 "/>
<polyline fill="none" stroke="black" points="920.629,-412.987 932.629,-424.987 "/>
<polyline fill="none" stroke="black" points="932.629,-469.987 920.629,-481.987 "/>
<text text-anchor="middle" x="898.129" y="-443.787" font-family="Times,serif" font-size="14.00">vApp_FE</text>
</g>
<!-- TESTNET0&#45;&gt;urn_vcloud_vapp_82bc2974_aad1_4f38_8f10_0aab9c667076 -->
<g id="edge21" class="edge"><title>TESTNET0:n&#45;&gt;urn_vcloud_vapp_82bc2974_aad1_4f38_8f10_0aab9c667076:s</title>
<path fill="none" stroke="black" d="M808.129,-366.987C808.129,-366.987 898.129,-411.487 898.129,-411.487"/>
</g>
<!-- urn_vcloud_vm_3e1bf41f_cb70_4258_92f5_386f22cc11a0 -->
<g id="node25" class="node"><title>urn_vcloud_vm_3e1bf41f_cb70_4258_92f5_386f22cc11a0</title>
<polygon fill="none" stroke="black" points="1067.13,-563.987 969.129,-563.987 969.129,-527.987 1067.13,-527.987 1067.13,-563.987"/>
<text text-anchor="middle" x="1018.13" y="-542.287" font-family="Times,serif" font-size="14.00">TEST_VM_02</text>
</g>
<!-- TESTNET0&#45;&gt;urn_vcloud_vm_3e1bf41f_cb70_4258_92f5_386f22cc11a0 -->
<g id="edge27" class="edge"><title>TESTNET0:n&#45;&gt;urn_vcloud_vm_3e1bf41f_cb70_4258_92f5_386f22cc11a0:s</title>
<path fill="none" stroke="black" d="M808.129,-366.987C808.129,-366.987 1018.13,-527.987 1018.13,-527.987"/>
</g>
<!-- urn_vcloud_vm_40a34d05_bc27_455b_ba0b_576bd99e14d3 -->
<g id="node26" class="node"><title>urn_vcloud_vm_40a34d05_bc27_455b_ba0b_576bd99e14d3</title>
<polygon fill="none" stroke="black" points="835.129,-563.987 737.129,-563.987 737.129,-527.987 835.129,-527.987 835.129,-563.987"/>
<text text-anchor="middle" x="786.129" y="-542.287" font-family="Times,serif" font-size="14.00">TEST_VM_01</text>
</g>
<!-- TESTNET0&#45;&gt;urn_vcloud_vm_40a34d05_bc27_455b_ba0b_576bd99e14d3 -->
<g id="edge29" class="edge"><title>TESTNET0:n&#45;&gt;urn_vcloud_vm_40a34d05_bc27_455b_ba0b_576bd99e14d3:s</title>
<path fill="none" stroke="black" d="M808.129,-366.987C808.129,-366.987 786.129,-527.987 786.129,-527.987"/>
</g>
<!-- urn_vcloud_vm_0ccae7ba_1585_443d_8091_3c5d02bc5ffe -->
<g id="node27" class="node"><title>urn_vcloud_vm_0ccae7ba_1585_443d_8091_3c5d02bc5ffe</title>
<polygon fill="none" stroke="black" points="951.129,-563.987 853.129,-563.987 853.129,-527.987 951.129,-527.987 951.129,-563.987"/>
<text text-anchor="middle" x="902.129" y="-542.287" font-family="Times,serif" font-size="14.00">TEST_VM_03</text>
</g>
<!-- TESTNET0&#45;&gt;urn_vcloud_vm_0ccae7ba_1585_443d_8091_3c5d02bc5ffe -->
<g id="edge31" class="edge"><title>TESTNET0:n&#45;&gt;urn_vcloud_vm_0ccae7ba_1585_443d_8091_3c5d02bc5ffe:s</title>
<path fill="none" stroke="black" d="M808.129,-366.987C808.129,-366.987 902.129,-527.987 902.129,-527.987"/>
</g>
<!-- urn_vcloud_vm_3e1bf41f_cb70_4258_92f5_386f22cc11a1 -->
<g id="node28" class="node"><title>urn_vcloud_vm_3e1bf41f_cb70_4258_92f5_386f22cc11a1</title>
<polygon fill="none" stroke="black" points="608.629,-563.987 515.629,-563.987 515.629,-527.987 608.629,-527.987 608.629,-563.987"/>
<text text-anchor="middle" x="562.129" y="-542.287" font-family="Times,serif" font-size="14.00">TEST_BE_01</text>
</g>
<!-- TESTNET0&#45;&gt;urn_vcloud_vm_3e1bf41f_cb70_4258_92f5_386f22cc11a1 -->
<g id="edge33" class="edge"><title>TESTNET0:n&#45;&gt;urn_vcloud_vm_3e1bf41f_cb70_4258_92f5_386f22cc11a1:s</title>
<path fill="none" stroke="black" d="M808.129,-366.987C808.129,-366.987 562.129,-527.987 562.129,-527.987"/>
</g>
<!-- urn_vcloud_vm_3e1bf41f_cb70_4258_92f5_386f22cc11a2 -->
<g id="node29" class="node"><title>urn_vcloud_vm_3e1bf41f_cb70_4258_92f5_386f22cc11a2</title>
<polygon fill="none" stroke="black" points="719.629,-563.987 626.629,-563.987 626.629,-527.987 719.629,-527.987 719.629,-563.987"/>
<text text-anchor="middle" x="673.129" y="-542.287" font-family="Times,serif" font-size="14.00">TEST_BE_02</text>
</g>
<!-- TESTNET0&#45;&gt;urn_vcloud_vm_3e1bf41f_cb70_4258_92f5_386f22cc11a2 -->
<g id="edge35" class="edge"><title>TESTNET0:n&#45;&gt;urn_vcloud_vm_3e1bf41f_cb70_4258_92f5_386f22cc11a2:s</title>
<path fill="none" stroke="black" d="M808.129,-366.987C808.129,-366.987 673.129,-527.987 673.129,-527.987"/>
</g>
<!-- TESTNET1&#45;&gt;urn_vcloud_vapp_82bc2974_aad1_4f38_8f10_0aab9c667076 -->
<g id="edge19" class="edge"><title>TESTNET1:n&#45;&gt;urn_vcloud_vapp_82bc2974_aad1_4f38_8f10_0aab9c667076:s</title>
<path fill="none" stroke="black" d="M634.129,-366.987C634.129,-366.987 898.129,-411.487 898.129,-411.487"/>
</g>
<!-- TESTNET1&#45;&gt;urn_vcloud_vapp_82bc2974_aad1_4f38_8f10_0aab9c667077 -->
<g id="edge22" class="edge"><title>TESTNET1:n&#45;&gt;urn_vcloud_vapp_82bc2974_aad1_4f38_8f10_0aab9c667077:s</title>
<path fill="none" stroke="black" d="M634.129,-366.987C634.129,-366.987 566.129,-410.487 566.129,-410.487"/>
</g>
<!-- urn_vcloud_vapp_82bc2974_aad1_4f38_8f10_0aab9c667078 -->
<g id="node23" class="node"><title>urn_vcloud_vapp_82bc2974_aad1_4f38_8f10_0aab9c667078</title>
<polygon fill="none" stroke="black" points="1247.13,-487.487 1167.13,-487.487 1167.13,-407.487 1247.13,-407.487 1247.13,-487.487"/>
<polyline fill="none" stroke="black" points="1179.13,-487.487 1167.13,-475.487 "/>
<polyline fill="none" stroke="black" points="1167.13,-419.487 1179.13,-407.487 "/>
<polyline fill="none" stroke="black" points="1235.13,-407.487 1247.13,-419.487 "/>
<polyline fill="none" stroke="black" points="1247.13,-475.487 1235.13,-487.487 "/>
<text text-anchor="middle" x="1207.13" y="-443.787" font-family="Times,serif" font-size="14.00">vApp_Mon</text>
</g>
<!-- TESTNET9&#45;&gt;urn_vcloud_vapp_82bc2974_aad1_4f38_8f10_0aab9c667078 -->
<g id="edge24" class="edge"><title>TESTNET9:n&#45;&gt;urn_vcloud_vapp_82bc2974_aad1_4f38_8f10_0aab9c667078:s</title>
<path fill="none" stroke="black" d="M1259.13,-366.987C1259.13,-366.987 1207.13,-406.487 1207.13,-406.487"/>
</g>
<!-- urn_vcloud_vm_3e1bf41f_cb70_4258_92f5_386f22cc11a3 -->
<g id="node30" class="node"><title>urn_vcloud_vm_3e1bf41f_cb70_4258_92f5_386f22cc11a3</title>
<polygon fill="none" stroke="black" points="1193.13,-563.987 1085.13,-563.987 1085.13,-527.987 1193.13,-527.987 1193.13,-563.987"/>
<text text-anchor="middle" x="1139.13" y="-542.287" font-family="Times,serif" font-size="14.00">TEST_MON_01</text>
</g>
<!-- TESTNET9&#45;&gt;urn_vcloud_vm_3e1bf41f_cb70_4258_92f5_386f22cc11a3 -->
<g id="edge37" class="edge"><title>TESTNET9:n&#45;&gt;urn_vcloud_vm_3e1bf41f_cb70_4258_92f5_386f22cc11a3:s</title>
<path fill="none" stroke="black" d="M1259.13,-366.987C1259.13,-366.987 1139.13,-527.987 1139.13,-527.987"/>
</g>
<!-- urn_vcloud_vm_3e1bf41f_cb70_4258_92f5_386f22cc11a4 -->
<g id="node31" class="node"><title>urn_vcloud_vm_3e1bf41f_cb70_4258_92f5_386f22cc11a4</title>
<polygon fill="none" stroke="black" points="1319.13,-563.987 1211.13,-563.987 1211.13,-527.987 1319.13,-527.987 1319.13,-563.987"/>
<text text-anchor="middle" x="1265.13" y="-542.287" font-family="Times,serif" font-size="14.00">TEST_MON_02</text>
</g>
<!-- TESTNET9&#45;&gt;urn_vcloud_vm_3e1bf41f_cb70_4258_92f5_386f22cc11a4 -->
<g id="edge39" class="edge"><title>TESTNET9:n&#45;&gt;urn_vcloud_vm_3e1bf41f_cb70_4258_92f5_386f22cc11a4:s</title>
<path fill="none" stroke="black" d="M1259.13,-366.987C1259.13,-366.987 1265.13,-527.987 1265.13,-527.987"/>
</g>
<!-- urn_vcloud_vm_3e1bf41f_cb70_4258_92f5_386f22cc11a5 -->
<g id="node32" class="node"><title>urn_vcloud_vm_3e1bf41f_cb70_4258_92f5_386f22cc11a5</title>
<polygon fill="none" stroke="black" points="1433.13,-563.987 1337.13,-563.987 1337.13,-527.987 1433.13,-527.987 1433.13,-563.987"/>
<text text-anchor="middle" x="1385.13" y="-542.287" font-family="Times,serif" font-size="14.00">Conf Manager</text>
</g>
<!-- TESTNET9&#45;&gt;urn_vcloud_vm_3e1bf41f_cb70_4258_92f5_386f22cc11a5 -->
<g id="edge41" class="edge"><title>TESTNET9:n&#45;&gt;urn_vcloud_vm_3e1bf41f_cb70_4258_92f5_386f22cc11a5:s</title>
<path fill="none" stroke="black" d="M1259.13,-366.987C1259.13,-366.987 1385.13,-527.987 1385.13,-527.987"/>
</g>
<!-- urn_vcloud_vapp_82bc2974_aad1_4f38_8f10_0aab9c667079 -->
<g id="node24" class="node"><title>urn_vcloud_vapp_82bc2974_aad1_4f38_8f10_0aab9c667079</title>
<polygon fill="none" stroke="black" points="1462.63,-491.987 1373.63,-491.987 1373.63,-402.987 1462.63,-402.987 1462.63,-491.987"/>
<polyline fill="none" stroke="black" points="1385.63,-491.987 1373.63,-479.987 "/>
<polyline fill="none" stroke="black" points="1373.63,-414.987 1385.63,-402.987 "/>
<polyline fill="none" stroke="black" points="1450.63,-402.987 1462.63,-414.987 "/>
<polyline fill="none" stroke="black" points="1462.63,-479.987 1450.63,-491.987 "/>
<text text-anchor="middle" x="1418.13" y="-443.787" font-family="Times,serif" font-size="14.00">Management</text>
</g>
<!-- TESTNET8&#45;&gt;urn_vcloud_vapp_82bc2974_aad1_4f38_8f10_0aab9c667079 -->
<g id="edge25" class="edge"><title>TESTNET8:n&#45;&gt;urn_vcloud_vapp_82bc2974_aad1_4f38_8f10_0aab9c667079:s</title>
<path fill="none" stroke="black" d="M1433.13,-366.987C1433.13,-366.987 1418.13,-402.987 1418.13,-402.987"/>
</g>
<!-- urn_vcloud_vm_3e1bf41f_cb70_4258_92f5_386f22cc11a6 -->
<g id="node33" class="node"><title>urn_vcloud_vm_3e1bf41f_cb70_4258_92f5_386f22cc11a6</title>
<polygon fill="none" stroke="black" points="1531.13,-563.987 1451.13,-563.987 1451.13,-527.987 1531.13,-527.987 1531.13,-563.987"/>
<text text-anchor="middle" x="1491.13" y="-542.287" font-family="Times,serif" font-size="14.00">Accounting</text>
</g>
<!-- TESTNET8&#45;&gt;urn_vcloud_vm_3e1bf41f_cb70_4258_92f5_386f22cc11a6 -->
<g id="edge43" class="edge"><title>TESTNET8:n&#45;&gt;urn_vcloud_vm_3e1bf41f_cb70_4258_92f5_386f22cc11a6:s</title>
<path fill="none" stroke="black" d="M1433.13,-366.987C1433.13,-366.987 1491.13,-527.987 1491.13,-527.987"/>
</g>
<!-- TESTNET3&#45;&gt;urn_vcloud_vapp_82bc2974_aad1_4f38_8f10_0aab9c667076 -->
<g id="edge20" class="edge"><title>TESTNET3:n&#45;&gt;urn_vcloud_vapp_82bc2974_aad1_4f38_8f10_0aab9c667076:s</title>
<path fill="none" stroke="black" d="M982.129,-366.987C982.129,-366.987 898.129,-411.487 898.129,-411.487"/>
</g>
<!-- urn_vcloud_vapp_82bc2974_aad1_4f38_8f10_0aab9c667076&#45;&gt;urn_vcloud_vm_3e1bf41f_cb70_4258_92f5_386f22cc11a0 -->
<g id="edge26" class="edge"><title>urn_vcloud_vapp_82bc2974_aad1_4f38_8f10_0aab9c667076:n&#45;&gt;urn_vcloud_vm_3e1bf41f_cb70_4258_92f5_386f22cc11a0:s</title>
<path fill="none" stroke="black" d="M898.129,-483.487C898.129,-483.487 1018.13,-527.987 1018.13,-527.987"/>
</g>
<!-- urn_vcloud_vapp_82bc2974_aad1_4f38_8f10_0aab9c667076&#45;&gt;urn_vcloud_vm_40a34d05_bc27_455b_ba0b_576bd99e14d3 -->
<g id="edge28" class="edge"><title>urn_vcloud_vapp_82bc2974_aad1_4f38_8f10_0aab9c667076:n&#45;&gt;urn_vcloud_vm_40a34d05_bc27_455b_ba0b_576bd99e14d3:s</title>
<path fill="none" stroke="black" d="M898.129,-483.487C898.129,-483.487 786.129,-527.987 786.129,-527.987"/>
</g>
<!-- urn_vcloud_vapp_82bc2974_aad1_4f38_8f10_0aab9c667076&#45;&gt;urn_vcloud_vm_0ccae7ba_1585_443d_8091_3c5d02bc5ffe -->
<g id="edge30" class="edge"><title>urn_vcloud_vapp_82bc2974_aad1_4f38_8f10_0aab9c667076:n&#45;&gt;urn_vcloud_vm_0ccae7ba_1585_443d_8091_3c5d02bc5ffe:s</title>
<path fill="none" stroke="black" d="M898.129,-483.487C898.129,-483.487 902.129,-527.987 902.129,-527.987"/>
</g>
<!-- urn_vcloud_vapp_82bc2974_aad1_4f38_8f10_0aab9c667077&#45;&gt;urn_vcloud_vm_3e1bf41f_cb70_4258_92f5_386f22cc11a1 -->
<g id="edge32" class="edge"><title>urn_vcloud_vapp_82bc2974_aad1_4f38_8f10_0aab9c667077:n&#45;&gt;urn_vcloud_vm_3e1bf41f_cb70_4258_92f5_386f22cc11a1:s</title>
<path fill="none" stroke="black" d="M566.129,-484.487C566.129,-484.487 562.129,-527.987 562.129,-527.987"/>
</g>
<!-- urn_vcloud_vapp_82bc2974_aad1_4f38_8f10_0aab9c667077&#45;&gt;urn_vcloud_vm_3e1bf41f_cb70_4258_92f5_386f22cc11a2 -->
<g id="edge34" class="edge"><title>urn_vcloud_vapp_82bc2974_aad1_4f38_8f10_0aab9c667077:n&#45;&gt;urn_vcloud_vm_3e1bf41f_cb70_4258_92f5_386f22cc11a2:s</title>
<path fill="none" stroke="black" d="M566.129,-484.487C566.129,-484.487 673.129,-527.987 673.129,-527.987"/>
</g>
<!-- urn_vcloud_vapp_82bc2974_aad1_4f38_8f10_0aab9c667078&#45;&gt;urn_vcloud_vm_3e1bf41f_cb70_4258_92f5_386f22cc11a3 -->
<g id="edge36" class="edge"><title>urn_vcloud_vapp_82bc2974_aad1_4f38_8f10_0aab9c667078:n&#45;&gt;urn_vcloud_vm_3e1bf41f_cb70_4258_92f5_386f22cc11a3:s</title>
<path fill="none" stroke="black" d="M1207.13,-488.487C1207.13,-488.487 1139.13,-527.987 1139.13,-527.987"/>
</g>
<!-- urn_vcloud_vapp_82bc2974_aad1_4f38_8f10_0aab9c667078&#45;&gt;urn_vcloud_vm_3e1bf41f_cb70_4258_92f5_386f22cc11a4 -->
<g id="edge38" class="edge"><title>urn_vcloud_vapp_82bc2974_aad1_4f38_8f10_0aab9c667078:n&#45;&gt;urn_vcloud_vm_3e1bf41f_cb70_4258_92f5_386f22cc11a4:s</title>
<path fill="none" stroke="black" d="M1207.13,-488.487C1207.13,-488.487 1265.13,-527.987 1265.13,-527.987"/>
</g>
<!-- urn_vcloud_vapp_82bc2974_aad1_4f38_8f10_0aab9c667079&#45;&gt;urn_vcloud_vm_3e1bf41f_cb70_4258_92f5_386f22cc11a5 -->
<g id="edge40" class="edge"><title>urn_vcloud_vapp_82bc2974_aad1_4f38_8f10_0aab9c667079:n&#45;&gt;urn_vcloud_vm_3e1bf41f_cb70_4258_92f5_386f22cc11a5:s</title>
<path fill="none" stroke="black" d="M1418.13,-491.987C1418.13,-491.987 1385.13,-527.987 1385.13,-527.987"/>
</g>
<!-- urn_vcloud_vapp_82bc2974_aad1_4f38_8f10_0aab9c667079&#45;&gt;urn_vcloud_vm_3e1bf41f_cb70_4258_92f5_386f22cc11a6 -->
<g id="edge42" class="edge"><title>urn_vcloud_vapp_82bc2974_aad1_4f38_8f10_0aab9c667079:n&#45;&gt;urn_vcloud_vm_3e1bf41f_cb70_4258_92f5_386f22cc11a6:s</title>
<path fill="none" stroke="black" d="M1418.13,-491.987C1418.13,-491.987 1491.13,-527.987 1491.13,-527.987"/>
</g>
</g>
</svg>
