<?xml version="1.0" encoding="UTF-8" standalone="no"?>
<!DOCTYPE svg PUBLIC "-//W3C//DTD SVG 1.1//EN"
 "http://www.w3.org/Graphics/SVG/1.1/DTD/svg11.dtd">
<!-- Generated by graphviz version 2.38.0 (20140413.2041)
 -->
<!-- Title: vCloud Pages: 1 -->
<svg width="2003pt" height="659pt"
 viewBox="0.00 0.00 2002.94 659.39" xmlns="http://www.w3.org/2000/svg" xmlns:xlink="http://www.w3.org/1999/xlink">
<g id="graph0" class="graph" transform="scale(1 1) rotate(0) translate(4 655.385)">
<title>vCloud</title>
<polygon fill="white" stroke="none" points="-4,4 -4,-655.385 1998.94,-655.385 1998.94,4 -4,4"/>
<!-- Org -->
<g id="node1" class="node"><title>Org</title>
<polygon fill="#f5f5f5" stroke="black" points="91.5445,-23.5623 60.9881,-36 30.4317,-23.5623 30.4603,-3.43769 91.516,-3.43769 91.5445,-23.5623"/>
<text text-anchor="middle" x="60.9881" y="-14.3" font-family="Times,serif" font-size="14.00">Org</text>
</g>
<!-- vDC -->
<g id="node2" class="node"><title>vDC</title>
<polygon fill="#ffb3ba" stroke="black" points="27.003,-84.4377 60.9881,-72 94.9732,-84.4377 94.9415,-104.562 27.0348,-104.562 27.003,-84.4377"/>
<text text-anchor="middle" x="60.9881" y="-86.3" font-family="Times,serif" font-size="14.00">vDC</text>
</g>
<!-- Org&#45;&gt;vDC -->
<g id="edge1" class="edge"><title>Org&#45;&gt;vDC</title>
<path fill="none" stroke="black" d="M60.9881,-36.3034C60.9881,-47.1537 60.9881,-61.0833 60.9881,-71.8957"/>
</g>
<!-- vSE -->
<g id="node3" class="node"><title>vSE</title>
<ellipse fill="#ffdfba" stroke="black" cx="60.9881" cy="-176.597" rx="25.2169" ry="25.2169"/>
<ellipse fill="none" stroke="black" cx="60.9881" cy="-176.597" rx="29.1963" ry="29.1963"/>
<text text-anchor="middle" x="60.9881" y="-172.897" font-family="Times,serif" font-size="14.00">vSE</text>
</g>
<!-- vDC&#45;&gt;vSE -->
<g id="edge2" class="edge"><title>vDC&#45;&gt;vSE</title>
<path fill="none" stroke="black" d="M60.9881,-104.592C60.9881,-115.988 60.9881,-132.649 60.9881,-146.968"/>
</g>
<!-- Network -->
<g id="node4" class="node"><title>Network</title>
<polygon fill="#ffffba" stroke="black" points="121.964,-281.195 24.9648,-281.195 0.0118894,-245.195 97.0114,-245.195 121.964,-281.195"/>
<text text-anchor="middle" x="60.9881" y="-259.495" font-family="Times,serif" font-size="14.00">Network</text>
</g>
<!-- vSE&#45;&gt;Network -->
<g id="edge3" class="edge"><title>vSE&#45;&gt;Network</title>
<path fill="none" stroke="black" d="M60.9881,-206.238C60.9881,-219.181 60.9881,-234.034 60.9881,-245.183"/>
</g>
<!-- StorProf -->
<g id="node5" class="node"><title>StorProf</title>
<ellipse fill="#baffc9" stroke="black" cx="60.9881" cy="-371.79" rx="40.0939" ry="40.0939"/>
<text text-anchor="middle" x="60.9881" y="-368.09" font-family="Times,serif" font-size="14.00">StorProf</text>
</g>
<!-- Network&#45;&gt;StorProf -->
<!-- vApp -->
<g id="node6" class="node"><title>vApp</title>
<polygon fill="#bae1ff" stroke="black" points="84.4881,-544.385 37.4881,-544.385 37.4881,-497.385 84.4881,-497.385 84.4881,-544.385"/>
<polyline fill="none" stroke="black" points="49.4881,-544.385 37.4881,-532.385 "/>
<polyline fill="none" stroke="black" points="37.4881,-509.385 49.4881,-497.385 "/>
<polyline fill="none" stroke="black" points="72.4881,-497.385 84.4881,-509.385 "/>
<polyline fill="none" stroke="black" points="84.4881,-532.385 72.4881,-544.385 "/>
<text text-anchor="middle" x="60.9881" y="-517.185" font-family="Times,serif" font-size="14.00">vApp</text>
</g>
<!-- StorProf&#45;&gt;vApp -->
<!-- VM -->
<g id="node7" class="node"><title>VM</title>
<polygon fill="#4dffb8" stroke="black" points="87.9881,-651.385 33.9881,-651.385 33.9881,-615.385 87.9881,-615.385 87.9881,-651.385"/>
<text text-anchor="middle" x="60.9881" y="-629.685" font-family="Times,serif" font-size="14.00">VM</text>
</g>
<!-- vApp&#45;&gt;VM -->
<g id="edge6" class="edge"><title>vApp&#45;&gt;VM</title>
<path fill="none" stroke="black" d="M60.9881,-544.513C60.9881,-565.476 60.9881,-596.2 60.9881,-615.212"/>
</g>
<!-- Org1 -->
<g id="node8" class="node"><title>Org1</title>
<polygon fill="#f5f5f5" stroke="black" points="1021.19,-23.5623 985.988,-36 950.791,-23.5623 950.823,-3.43769 1021.15,-3.43769 1021.19,-23.5623"/>
<text text-anchor="middle" x="985.988" y="-14.3" font-family="Times,serif" font-size="14.00">Org1</text>
</g>
<!-- Vdc1 -->
<g id="node10" class="node"><title>Vdc1</title>
<polygon fill="#ffb3ba" stroke="black" points="841.078,-84.4377 877.988,-72 914.898,-84.4377 914.864,-104.562 841.112,-104.562 841.078,-84.4377"/>
<text text-anchor="middle" x="877.988" y="-86.3" font-family="Times,serif" font-size="14.00">Vdc1</text>
</g>
<!-- Org1&#45;&gt;Vdc1 -->
<g id="edge7" class="edge"><title>Org1:n&#45;&gt;Vdc1:s</title>
<path fill="none" stroke="black" d="M985.988,-36C985.988,-36 877.988,-72 877.988,-72"/>
</g>
<!-- Vdc2 -->
<g id="node11" class="node"><title>Vdc2</title>
<polygon fill="#ffb3ba" stroke="black" points="1085.08,-84.4377 1121.99,-72 1158.9,-84.4377 1158.86,-104.562 1085.11,-104.562 1085.08,-84.4377"/>
<text text-anchor="middle" x="1121.99" y="-86.3" font-family="Times,serif" font-size="14.00">Vdc2</text>
</g>
<!-- Org1&#45;&gt;Vdc2 -->
<g id="edge8" class="edge"><title>Org1:n&#45;&gt;Vdc2:s</title>
<path fill="none" stroke="black" d="M985.988,-36C985.988,-36 1121.99,-72 1121.99,-72"/>
</g>
<!-- Org2 -->
<g id="node9" class="node"><title>Org2</title>
<polygon fill="#f5f5f5" stroke="black" points="1778.19,-23.5623 1742.99,-36 1707.79,-23.5623 1707.82,-3.43769 1778.15,-3.43769 1778.19,-23.5623"/>
<text text-anchor="middle" x="1742.99" y="-14.3" font-family="Times,serif" font-size="14.00">Org2</text>
</g>
<!-- Calculus -->
<g id="node12" class="node"><title>Calculus</title>
<polygon fill="#ffb3ba" stroke="black" points="1691.66,-84.4377 1742.99,-72 1794.32,-84.4377 1794.27,-104.562 1691.7,-104.562 1691.66,-84.4377"/>
<text text-anchor="middle" x="1742.99" y="-86.3" font-family="Times,serif" font-size="14.00">Calculus</text>
</g>
<!-- Org2&#45;&gt;Calculus -->
<g id="edge9" class="edge"><title>Org2:n&#45;&gt;Calculus:s</title>
<path fill="none" stroke="black" d="M1742.99,-36C1742.99,-36 1742.99,-72 1742.99,-72"/>
</g>
<!-- Vse1 -->
<g id="node13" class="node"><title>Vse1</title>
<ellipse fill="#ffdfba" stroke="black" cx="761.988" cy="-176.597" rx="28.6832" ry="28.6832"/>
<ellipse fill="none" stroke="black" cx="761.988" cy="-176.597" rx="32.6952" ry="32.6952"/>
<text text-anchor="middle" x="761.988" y="-172.897" font-family="Times,serif" font-size="14.00">Vse1</text>
</g>
<!-- Vdc1&#45;&gt;Vse1 -->
<g id="edge10" class="edge"><title>Vdc1:n&#45;&gt;Vse1:s</title>
<path fill="none" stroke="black" d="M877.988,-106C877.988,-106 761.988,-144 761.988,-144"/>
</g>
<!-- storProf1 -->
<g id="node23" class="node"><title>storProf1</title>
<ellipse fill="#baffc9" stroke="black" cx="342.988" cy="-371.79" rx="43.5923" ry="43.5923"/>
<text text-anchor="middle" x="342.988" y="-368.09" font-family="Times,serif" font-size="14.00">storProf1</text>
</g>
<!-- Vdc1&#45;&gt;storProf1 -->
<g id="edge20" class="edge"><title>Vdc1:n&#45;&gt;storProf1:s</title>
<path fill="none" stroke="black" d="M877.988,-105C877.988,-105 342.988,-327.79 342.988,-327.79"/>
</g>
<!-- storProf2 -->
<g id="node24" class="node"><title>storProf2</title>
<ellipse fill="#baffc9" stroke="black" cx="986.988" cy="-371.79" rx="43.5923" ry="43.5923"/>
<text text-anchor="middle" x="986.988" y="-368.09" font-family="Times,serif" font-size="14.00">storProf2</text>
</g>
<!-- Vdc1&#45;&gt;storProf2 -->
<g id="edge21" class="edge"><title>Vdc1:n&#45;&gt;storProf2:s</title>
<path fill="none" stroke="black" d="M877.988,-105C877.988,-105 986.988,-327.79 986.988,-327.79"/>
</g>
<!-- Vse2 -->
<g id="node14" class="node"><title>Vse2</title>
<ellipse fill="#ffdfba" stroke="black" cx="1197.99" cy="-176.597" rx="28.6832" ry="28.6832"/>
<ellipse fill="none" stroke="black" cx="1197.99" cy="-176.597" rx="32.6952" ry="32.6952"/>
<text text-anchor="middle" x="1197.99" y="-172.897" font-family="Times,serif" font-size="14.00">Vse2</text>
</g>
<!-- Vdc2&#45;&gt;Vse2 -->
<g id="edge11" class="edge"><title>Vdc2:n&#45;&gt;Vse2:s</title>
<path fill="none" stroke="black" d="M1121.99,-106C1121.99,-106 1197.99,-144 1197.99,-144"/>
</g>
<!-- storProf3 -->
<g id="node25" class="node"><title>storProf3</title>
<ellipse fill="#baffc9" stroke="black" cx="1130.99" cy="-371.79" rx="43.5923" ry="43.5923"/>
<text text-anchor="middle" x="1130.99" y="-368.09" font-family="Times,serif" font-size="14.00">storProf3</text>
</g>
<!-- Vdc2&#45;&gt;storProf3 -->
<g id="edge22" class="edge"><title>Vdc2:n&#45;&gt;storProf3:s</title>
<path fill="none" stroke="black" d="M1121.99,-105C1121.99,-105 1130.99,-327.79 1130.99,-327.79"/>
</g>
<!-- Vse3 -->
<g id="node15" class="node"><title>Vse3</title>
<ellipse fill="#ffdfba" stroke="black" cx="1651.99" cy="-176.597" rx="28.6832" ry="28.6832"/>
<ellipse fill="none" stroke="black" cx="1651.99" cy="-176.597" rx="32.6952" ry="32.6952"/>
<text text-anchor="middle" x="1651.99" y="-172.897" font-family="Times,serif" font-size="14.00">Vse3</text>
</g>
<!-- Calculus&#45;&gt;Vse3 -->
<g id="edge12" class="edge"><title>Calculus:n&#45;&gt;Vse3:s</title>
<path fill="none" stroke="black" d="M1742.99,-106C1742.99,-106 1651.99,-144 1651.99,-144"/>
</g>
<!-- Vse4 -->
<g id="node16" class="node"><title>Vse4</title>
<ellipse fill="#ffdfba" stroke="black" cx="1857.99" cy="-176.597" rx="28.6832" ry="28.6832"/>
<ellipse fill="none" stroke="black" cx="1857.99" cy="-176.597" rx="32.6952" ry="32.6952"/>
<text text-anchor="middle" x="1857.99" y="-172.897" font-family="Times,serif" font-size="14.00">Vse4</text>
</g>
<!-- Calculus&#45;&gt;Vse4 -->
<g id="edge13" class="edge"><title>Calculus:n&#45;&gt;Vse4:s</title>
<path fill="none" stroke="black" d="M1742.99,-106C1742.99,-106 1857.99,-144 1857.99,-144"/>
</g>
<!-- calcStorProf -->
<g id="node26" class="node"><title>calcStorProf</title>
<ellipse fill="#baffc9" stroke="black" cx="1742.99" cy="-371.79" rx="54.6905" ry="54.6905"/>
<text text-anchor="middle" x="1742.99" y="-368.09" font-family="Times,serif" font-size="14.00">calcStorProf</text>
</g>
<!-- Calculus&#45;&gt;calcStorProf -->
<g id="edge23" class="edge"><title>Calculus:n&#45;&gt;calcStorProf:s</title>
<path fill="none" stroke="black" d="M1742.99,-105C1742.99,-105 1742.99,-316.79 1742.99,-316.79"/>
</g>
<!-- Net1 -->
<g id="node17" class="node"><title>Net1</title>
<polygon fill="#ffffba" stroke="black" points="510.941,-281.195 445.794,-281.195 429.035,-245.195 494.182,-245.195 510.941,-281.195"/>
<text text-anchor="middle" x="469.988" y="-259.495" font-family="Times,serif" font-size="14.00">Net1</text>
</g>
<!-- Vse1&#45;&gt;Net1 -->
<g id="edge14" class="edge"><title>Vse1:n&#45;&gt;Net1:s</title>
<path fill="none" stroke="black" d="M761.988,-209.195C761.988,-209.195 469.988,-245.195 469.988,-245.195"/>
</g>
<!-- Net2 -->
<g id="node18" class="node"><title>Net2</title>
<polygon fill="#ffffba" stroke="black" points="739.941,-281.195 674.794,-281.195 658.035,-245.195 723.182,-245.195 739.941,-281.195"/>
<text text-anchor="middle" x="698.988" y="-259.495" font-family="Times,serif" font-size="14.00">Net2</text>
</g>
<!-- Vse1&#45;&gt;Net2 -->
<g id="edge15" class="edge"><title>Vse1:n&#45;&gt;Net2:s</title>
<path fill="none" stroke="black" d="M761.988,-209.195C761.988,-209.195 698.988,-245.195 698.988,-245.195"/>
</g>
<!-- Net3 -->
<g id="node19" class="node"><title>Net3</title>
<polygon fill="#ffffba" stroke="black" points="865.941,-281.195 800.794,-281.195 784.035,-245.195 849.182,-245.195 865.941,-281.195"/>
<text text-anchor="middle" x="824.988" y="-259.495" font-family="Times,serif" font-size="14.00">Net3</text>
</g>
<!-- Vse1&#45;&gt;Net3 -->
<g id="edge16" class="edge"><title>Vse1:n&#45;&gt;Net3:s</title>
<path fill="none" stroke="black" d="M761.988,-209.195C761.988,-209.195 824.988,-245.195 824.988,-245.195"/>
</g>
<!-- Mail Net -->
<g id="node20" class="node"><title>Mail Net</title>
<polygon fill="#ffffba" stroke="black" points="1275.78,-281.195 1175.89,-281.195 1150.2,-245.195 1250.08,-245.195 1275.78,-281.195"/>
<text text-anchor="middle" x="1212.99" y="-259.495" font-family="Times,serif" font-size="14.00">Mail Net</text>
</g>
<!-- Vse2&#45;&gt;Mail Net -->
<g id="edge17" class="edge"><title>Vse2:n&#45;&gt;Mail Net:s</title>
<path fill="none" stroke="black" d="M1197.99,-209.195C1197.99,-209.195 1212.99,-245.195 1212.99,-245.195"/>
</g>
<!-- CalcNet -->
<g id="node21" class="node"><title>CalcNet</title>
<polygon fill="#ffffba" stroke="black" points="1680.25,-281.195 1587.57,-281.195 1563.73,-245.195 1656.41,-245.195 1680.25,-281.195"/>
<text text-anchor="middle" x="1621.99" y="-259.495" font-family="Times,serif" font-size="14.00">CalcNet</text>
</g>
<!-- Vse3&#45;&gt;CalcNet -->
<g id="edge18" class="edge"><title>Vse3:n&#45;&gt;CalcNet:s</title>
<path fill="none" stroke="black" d="M1651.99,-209.195C1651.99,-209.195 1621.99,-245.195 1621.99,-245.195"/>
</g>
<!-- CalcManNet -->
<g id="node22" class="node"><title>CalcManNet</title>
<polygon fill="#ffffba" stroke="black" points="1994.89,-281.195 1864.6,-281.195 1831.08,-245.195 1961.38,-245.195 1994.89,-281.195"/>
<text text-anchor="middle" x="1912.99" y="-259.495" font-family="Times,serif" font-size="14.00">CalcManNet</text>
</g>
<!-- Vse4&#45;&gt;CalcManNet -->
<g id="edge19" class="edge"><title>Vse4:n&#45;&gt;CalcManNet:s</title>
<path fill="none" stroke="black" d="M1857.99,-209.195C1857.99,-209.195 1912.99,-245.195 1912.99,-245.195"/>
</g>
<!-- vApp1_FE -->
<g id="node27" class="node"><title>vApp1_FE</title>
<polygon fill="#bae1ff" stroke="black" points="308.988,-558.885 232.988,-558.885 232.988,-482.885 308.988,-482.885 308.988,-558.885"/>
<polyline fill="none" stroke="black" points="244.988,-558.885 232.988,-546.885 "/>
<polyline fill="none" stroke="black" points="232.988,-494.885 244.988,-482.885 "/>
<polyline fill="none" stroke="black" points="296.988,-482.885 308.988,-494.885 "/>
<polyline fill="none" stroke="black" points="308.988,-546.885 296.988,-558.885 "/>
<text text-anchor="middle" x="270.988" y="-517.185" font-family="Times,serif" font-size="14.00">vApp1_FE</text>
</g>
<!-- Net1&#45;&gt;vApp1_FE -->
<g id="edge24" class="edge"><title>Net1:n&#45;&gt;vApp1_FE:s</title>
<path fill="none" stroke="black" d="M469.988,-281.195C469.988,-281.195 270.988,-482.885 270.988,-482.885"/>
</g>
<!-- vApp2_BE -->
<g id="node28" class="node"><title>vApp2_BE</title>
<polygon fill="#bae1ff" stroke="black" points="670.488,-559.385 593.488,-559.385 593.488,-482.385 670.488,-482.385 670.488,-559.385"/>
<polyline fill="none" stroke="black" points="605.488,-559.385 593.488,-547.385 "/>
<polyline fill="none" stroke="black" points="593.488,-494.385 605.488,-482.385 "/>
<polyline fill="none" stroke="black" points="658.488,-482.385 670.488,-494.385 "/>
<polyline fill="none" stroke="black" points="670.488,-547.385 658.488,-559.385 "/>
<text text-anchor="middle" x="631.988" y="-517.185" font-family="Times,serif" font-size="14.00">vApp2_BE</text>
</g>
<!-- Net1&#45;&gt;vApp2_BE -->
<g id="edge25" class="edge"><title>Net1:n&#45;&gt;vApp2_BE:s</title>
<path fill="none" stroke="black" d="M469.988,-281.195C469.988,-281.195 631.988,-481.885 631.988,-481.885"/>
</g>
<!-- vm1 -->
<g id="node33" class="node"><title>vm1</title>
<polygon fill="#4dffb8" stroke="black" points="193.988,-651.385 139.988,-651.385 139.988,-615.385 193.988,-615.385 193.988,-651.385"/>
<text text-anchor="middle" x="166.988" y="-629.685" font-family="Times,serif" font-size="14.00">vm1</text>
</g>
<!-- Net1&#45;&gt;vm1 -->
<g id="edge32" class="edge"><title>Net1:n&#45;&gt;vm1:s</title>
<path fill="none" stroke="black" d="M469.988,-281.195C469.988,-281.195 166.988,-615.385 166.988,-615.385"/>
</g>
<!-- vm2 -->
<g id="node34" class="node"><title>vm2</title>
<polygon fill="#4dffb8" stroke="black" points="297.988,-651.385 243.988,-651.385 243.988,-615.385 297.988,-615.385 297.988,-651.385"/>
<text text-anchor="middle" x="270.988" y="-629.685" font-family="Times,serif" font-size="14.00">vm2</text>
</g>
<!-- Net1&#45;&gt;vm2 -->
<g id="edge35" class="edge"><title>Net1:n&#45;&gt;vm2:s</title>
<path fill="none" stroke="black" d="M469.988,-281.195C469.988,-281.195 270.988,-615.385 270.988,-615.385"/>
</g>
<!-- vm3 -->
<g id="node35" class="node"><title>vm3</title>
<polygon fill="#4dffb8" stroke="black" points="401.988,-651.385 347.988,-651.385 347.988,-615.385 401.988,-615.385 401.988,-651.385"/>
<text text-anchor="middle" x="374.988" y="-629.685" font-family="Times,serif" font-size="14.00">vm3</text>
</g>
<!-- Net1&#45;&gt;vm3 -->
<g id="edge38" class="edge"><title>Net1:n&#45;&gt;vm3:s</title>
<path fill="none" stroke="black" d="M469.988,-281.195C469.988,-281.195 374.988,-615.385 374.988,-615.385"/>
</g>
<!-- vm4 -->
<g id="node36" class="node"><title>vm4</title>
<polygon fill="#4dffb8" stroke="black" points="553.988,-651.385 499.988,-651.385 499.988,-615.385 553.988,-615.385 553.988,-651.385"/>
<text text-anchor="middle" x="526.988" y="-629.685" font-family="Times,serif" font-size="14.00">vm4</text>
</g>
<!-- Net1&#45;&gt;vm4 -->
<g id="edge41" class="edge"><title>Net1:n&#45;&gt;vm4:s</title>
<path fill="none" stroke="black" d="M469.988,-281.195C469.988,-281.195 526.988,-615.385 526.988,-615.385"/>
</g>
<!-- vm5 -->
<g id="node37" class="node"><title>vm5</title>
<polygon fill="#4dffb8" stroke="black" points="691.988,-651.385 637.988,-651.385 637.988,-615.385 691.988,-615.385 691.988,-651.385"/>
<text text-anchor="middle" x="664.988" y="-629.685" font-family="Times,serif" font-size="14.00">vm5</text>
</g>
<!-- Net1&#45;&gt;vm5 -->
<g id="edge45" class="edge"><title>Net1:n&#45;&gt;vm5:s</title>
<path fill="none" stroke="black" d="M469.988,-281.195C469.988,-281.195 664.988,-615.385 664.988,-615.385"/>
</g>
<!-- Net2&#45;&gt;vApp2_BE -->
<g id="edge26" class="edge"><title>Net2:n&#45;&gt;vApp2_BE:s</title>
<path fill="none" stroke="black" d="M698.988,-281.195C698.988,-281.195 631.988,-481.885 631.988,-481.885"/>
</g>
<!-- Net2&#45;&gt;vm4 -->
<g id="edge42" class="edge"><title>Net2:n&#45;&gt;vm4:s</title>
<path fill="none" stroke="black" d="M698.988,-281.195C698.988,-281.195 526.988,-615.385 526.988,-615.385"/>
</g>
<!-- Net2&#45;&gt;vm5 -->
<g id="edge46" class="edge"><title>Net2:n&#45;&gt;vm5:s</title>
<path fill="none" stroke="black" d="M698.988,-281.195C698.988,-281.195 664.988,-615.385 664.988,-615.385"/>
</g>
<!-- monitoring -->
<g id="node29" class="node"><title>monitoring</title>
<polygon fill="#bae1ff" stroke="black" points="882.488,-560.385 803.488,-560.385 803.488,-481.385 882.488,-481.385 882.488,-560.385"/>
<polyline fill="none" stroke="black" points="815.488,-560.385 803.488,-548.385 "/>
<polyline fill="none" stroke="black" points="803.488,-493.385 815.488,-481.385 "/>
<polyline fill="none" stroke="black" points="870.488,-481.385 882.488,-493.385 "/>
<polyline fill="none" stroke="black" points="882.488,-548.385 870.488,-560.385 "/>
<text text-anchor="middle" x="842.988" y="-517.185" font-family="Times,serif" font-size="14.00">Monitoring</text>
</g>
<!-- Net3&#45;&gt;monitoring -->
<g id="edge27" class="edge"><title>Net3:n&#45;&gt;monitoring:s</title>
<path fill="none" stroke="black" d="M824.988,-281.195C824.988,-281.195 842.988,-480.885 842.988,-480.885"/>
</g>
<!-- monitor1 -->
<g id="node38" class="node"><title>monitor1</title>
<polygon fill="#4dffb8" stroke="black" points="982.488,-651.385 915.488,-651.385 915.488,-615.385 982.488,-615.385 982.488,-651.385"/>
<text text-anchor="middle" x="948.988" y="-629.685" font-family="Times,serif" font-size="14.00">monitor1</text>
</g>
<!-- Net3&#45;&gt;monitor1 -->
<g id="edge49" class="edge"><title>Net3:n&#45;&gt;monitor1:s</title>
<path fill="none" stroke="black" d="M824.988,-281.195C824.988,-281.195 948.988,-615.385 948.988,-615.385"/>
</g>
<!-- monitor2 -->
<g id="node39" class="node"><title>monitor2</title>
<polygon fill="#4dffb8" stroke="black" points="876.488,-651.385 809.488,-651.385 809.488,-615.385 876.488,-615.385 876.488,-651.385"/>
<text text-anchor="middle" x="842.988" y="-629.685" font-family="Times,serif" font-size="14.00">monitor2</text>
</g>
<!-- Net3&#45;&gt;monitor2 -->
<g id="edge52" class="edge"><title>Net3:n&#45;&gt;monitor2:s</title>
<path fill="none" stroke="black" d="M824.988,-281.195C824.988,-281.195 842.988,-615.385 842.988,-615.385"/>
</g>
<!-- Mail -->
<g id="node30" class="node"><title>Mail</title>
<polygon fill="#bae1ff" stroke="black" points="1271.49,-542.385 1228.49,-542.385 1228.49,-499.385 1271.49,-499.385 1271.49,-542.385"/>
<polyline fill="none" stroke="black" points="1240.49,-542.385 1228.49,-530.385 "/>
<polyline fill="none" stroke="black" points="1228.49,-511.385 1240.49,-499.385 "/>
<polyline fill="none" stroke="black" points="1259.49,-499.385 1271.49,-511.385 "/>
<polyline fill="none" stroke="black" points="1271.49,-530.385 1259.49,-542.385 "/>
<text text-anchor="middle" x="1249.99" y="-517.185" font-family="Times,serif" font-size="14.00">Mail</text>
</g>
<!-- Mail Net&#45;&gt;Mail -->
<g id="edge28" class="edge"><title>Mail Net:n&#45;&gt;Mail:s</title>
<path fill="none" stroke="black" d="M1212.99,-281.195C1212.99,-281.195 1249.99,-498.885 1249.99,-498.885"/>
</g>
<!-- Webmail -->
<g id="node40" class="node"><title>Webmail</title>
<polygon fill="#4dffb8" stroke="black" points="1333.99,-651.385 1265.99,-651.385 1265.99,-615.385 1333.99,-615.385 1333.99,-651.385"/>
<text text-anchor="middle" x="1299.99" y="-629.685" font-family="Times,serif" font-size="14.00">Webmail</text>
</g>
<!-- Mail Net&#45;&gt;Webmail -->
<g id="edge55" class="edge"><title>Mail Net:n&#45;&gt;Webmail:s</title>
<path fill="none" stroke="black" d="M1212.99,-281.195C1212.99,-281.195 1299.99,-615.385 1299.99,-615.385"/>
</g>
<!-- MTA -->
<g id="node41" class="node"><title>MTA</title>
<polygon fill="#4dffb8" stroke="black" points="1229.99,-651.385 1175.99,-651.385 1175.99,-615.385 1229.99,-615.385 1229.99,-651.385"/>
<text text-anchor="middle" x="1202.99" y="-629.685" font-family="Times,serif" font-size="14.00">MTA</text>
</g>
<!-- Mail Net&#45;&gt;MTA -->
<g id="edge58" class="edge"><title>Mail Net:n&#45;&gt;MTA:s</title>
<path fill="none" stroke="black" d="M1212.99,-281.195C1212.99,-281.195 1202.99,-615.385 1202.99,-615.385"/>
</g>
<!-- Mailbox Server -->
<g id="node42" class="node"><title>Mailbox Server</title>
<polygon fill="#4dffb8" stroke="black" points="1157.99,-651.385 1055.99,-651.385 1055.99,-615.385 1157.99,-615.385 1157.99,-651.385"/>
<text text-anchor="middle" x="1106.99" y="-629.685" font-family="Times,serif" font-size="14.00">Mailbox Server</text>
</g>
<!-- Mail Net&#45;&gt;Mailbox Server -->
<g id="edge61" class="edge"><title>Mail Net:n&#45;&gt;Mailbox Server:s</title>
<path fill="none" stroke="black" d="M1212.99,-281.195C1212.99,-281.195 1106.99,-615.385 1106.99,-615.385"/>
</g>
<!-- Calc vApp -->
<g id="node31" class="node"><title>Calc vApp</title>
<polygon fill="#bae1ff" stroke="black" points="1555.49,-558.385 1480.49,-558.385 1480.49,-483.385 1555.49,-483.385 1555.49,-558.385"/>
<polyline fill="none" stroke="black" points="1492.49,-558.385 1480.49,-546.385 "/>
<polyline fill="none" stroke="black" points="1480.49,-495.385 1492.49,-483.385 "/>
<polyline fill="none" stroke="black" points="1543.49,-483.385 1555.49,-495.385 "/>
<polyline fill="none" stroke="black" points="1555.49,-546.385 1543.49,-558.385 "/>
<text text-anchor="middle" x="1517.99" y="-517.185" font-family="Times,serif" font-size="14.00">Calc vApp</text>
</g>
<!-- CalcNet&#45;&gt;Calc vApp -->
<g id="edge29" class="edge"><title>CalcNet:n&#45;&gt;Calc vApp:s</title>
<path fill="none" stroke="black" d="M1621.99,-281.195C1621.99,-281.195 1517.99,-482.885 1517.99,-482.885"/>
</g>
<!-- Grid 01 -->
<g id="node43" class="node"><title>Grid 01</title>
<polygon fill="#4dffb8" stroke="black" points="1443.49,-651.385 1384.49,-651.385 1384.49,-615.385 1443.49,-615.385 1443.49,-651.385"/>
<text text-anchor="middle" x="1413.99" y="-629.685" font-family="Times,serif" font-size="14.00">Grid 01</text>
</g>
<!-- CalcNet&#45;&gt;Grid 01 -->
<g id="edge64" class="edge"><title>CalcNet:n&#45;&gt;Grid 01:s</title>
<path fill="none" stroke="black" d="M1621.99,-281.195C1621.99,-281.195 1413.99,-615.385 1413.99,-615.385"/>
</g>
<!-- Grid 02 -->
<g id="node44" class="node"><title>Grid 02</title>
<polygon fill="#4dffb8" stroke="black" points="1547.49,-651.385 1488.49,-651.385 1488.49,-615.385 1547.49,-615.385 1547.49,-651.385"/>
<text text-anchor="middle" x="1517.99" y="-629.685" font-family="Times,serif" font-size="14.00">Grid 02</text>
</g>
<!-- CalcNet&#45;&gt;Grid 02 -->
<g id="edge67" class="edge"><title>CalcNet:n&#45;&gt;Grid 02:s</title>
<path fill="none" stroke="black" d="M1621.99,-281.195C1621.99,-281.195 1517.99,-615.385 1517.99,-615.385"/>
</g>
<!-- Grid 03 -->
<g id="node45" class="node"><title>Grid 03</title>
<polygon fill="#4dffb8" stroke="black" points="1650.49,-651.385 1591.49,-651.385 1591.49,-615.385 1650.49,-615.385 1650.49,-651.385"/>
<text text-anchor="middle" x="1620.99" y="-629.685" font-family="Times,serif" font-size="14.00">Grid 03</text>
</g>
<!-- CalcNet&#45;&gt;Grid 03 -->
<g id="edge70" class="edge"><title>CalcNet:n&#45;&gt;Grid 03:s</title>
<path fill="none" stroke="black" d="M1621.99,-281.195C1621.99,-281.195 1620.99,-615.385 1620.99,-615.385"/>
</g>
<!-- Grid 04 -->
<g id="node46" class="node"><title>Grid 04</title>
<polygon fill="#4dffb8" stroke="black" points="1727.49,-651.385 1668.49,-651.385 1668.49,-615.385 1727.49,-615.385 1727.49,-651.385"/>
<text text-anchor="middle" x="1697.99" y="-629.685" font-family="Times,serif" font-size="14.00">Grid 04</text>
</g>
<!-- CalcNet&#45;&gt;Grid 04 -->
<g id="edge73" class="edge"><title>CalcNet:n&#45;&gt;Grid 04:s</title>
<path fill="none" stroke="black" d="M1621.99,-281.195C1621.99,-281.195 1697.99,-615.385 1697.99,-615.385"/>
</g>
<!-- Calc Manager -->
<g id="node47" class="node"><title>Calc Manager</title>
<polygon fill="#4dffb8" stroke="black" points="1915.99,-651.385 1821.99,-651.385 1821.99,-615.385 1915.99,-615.385 1915.99,-651.385"/>
<text text-anchor="middle" x="1868.99" y="-629.685" font-family="Times,serif" font-size="14.00">Calc Manager</text>
</g>
<!-- CalcNet&#45;&gt;Calc Manager -->
<g id="edge76" class="edge"><title>CalcNet:n&#45;&gt;Calc Manager:s</title>
<path fill="none" stroke="black" d="M1621.99,-281.195C1621.99,-281.195 1868.99,-615.385 1868.99,-615.385"/>
</g>
<!-- Calc Manag vApp -->
<g id="node32" class="node"><title>Calc Manag vApp</title>
<polygon fill="#bae1ff" stroke="black" points="1971.49,-579.385 1854.49,-579.385 1854.49,-462.385 1971.49,-462.385 1971.49,-579.385"/>
<polyline fill="none" stroke="black" points="1866.49,-579.385 1854.49,-567.385 "/>
<polyline fill="none" stroke="black" points="1854.49,-474.385 1866.49,-462.385 "/>
<polyline fill="none" stroke="black" points="1959.49,-462.385 1971.49,-474.385 "/>
<polyline fill="none" stroke="black" points="1971.49,-567.385 1959.49,-579.385 "/>
<text text-anchor="middle" x="1912.99" y="-517.185" font-family="Times,serif" font-size="14.00">Calc Manag vApp</text>
</g>
<!-- CalcManNet&#45;&gt;Calc Manag vApp -->
<g id="edge30" class="edge"><title>CalcManNet:n&#45;&gt;Calc Manag vApp:s</title>
<path fill="none" stroke="black" d="M1912.99,-281.195C1912.99,-281.195 1912.99,-461.885 1912.99,-461.885"/>
</g>
<!-- CalcManNet&#45;&gt;Calc Manager -->
<g id="edge77" class="edge"><title>CalcManNet:n&#45;&gt;Calc Manager:s</title>
<path fill="none" stroke="black" d="M1912.99,-281.195C1912.99,-281.195 1868.99,-615.385 1868.99,-615.385"/>
</g>
<!-- storProf1&#45;&gt;vm1 -->
<g id="edge33" class="edge"><title>storProf1:n&#45;&gt;vm1:s</title>
<path fill="none" stroke="black" d="M342.988,-415.79C342.988,-415.79 166.988,-615.385 166.988,-615.385"/>
</g>
<!-- storProf1&#45;&gt;vm2 -->
<g id="edge36" class="edge"><title>storProf1:n&#45;&gt;vm2:s</title>
<path fill="none" stroke="black" d="M342.988,-415.79C342.988,-415.79 270.988,-615.385 270.988,-615.385"/>
</g>
<!-- storProf1&#45;&gt;vm3 -->
<g id="edge39" class="edge"><title>storProf1:n&#45;&gt;vm3:s</title>
<path fill="none" stroke="black" d="M342.988,-415.79C342.988,-415.79 374.988,-615.385 374.988,-615.385"/>
</g>
<!-- storProf1&#45;&gt;vm4 -->
<g id="edge43" class="edge"><title>storProf1:n&#45;&gt;vm4:s</title>
<path fill="none" stroke="black" d="M342.988,-415.79C342.988,-415.79 526.988,-615.385 526.988,-615.385"/>
</g>
<!-- storProf1&#45;&gt;vm5 -->
<g id="edge47" class="edge"><title>storProf1:n&#45;&gt;vm5:s</title>
<path fill="none" stroke="black" d="M342.988,-415.79C342.988,-415.79 664.988,-615.385 664.988,-615.385"/>
</g>
<!-- storProf2&#45;&gt;monitor1 -->
<g id="edge50" class="edge"><title>storProf2:n&#45;&gt;monitor1:s</title>
<path fill="none" stroke="black" d="M986.988,-415.79C986.988,-415.79 948.988,-615.385 948.988,-615.385"/>
</g>
<!-- storProf2&#45;&gt;monitor2 -->
<g id="edge53" class="edge"><title>storProf2:n&#45;&gt;monitor2:s</title>
<path fill="none" stroke="black" d="M986.988,-415.79C986.988,-415.79 842.988,-615.385 842.988,-615.385"/>
</g>
<!-- storProf3&#45;&gt;Webmail -->
<g id="edge56" class="edge"><title>storProf3:n&#45;&gt;Webmail:s</title>
<path fill="none" stroke="black" d="M1130.99,-415.79C1130.99,-415.79 1299.99,-615.385 1299.99,-615.385"/>
</g>
<!-- storProf3&#45;&gt;MTA -->
<g id="edge59" class="edge"><title>storProf3:n&#45;&gt;MTA:s</title>
<path fill="none" stroke="black" d="M1130.99,-415.79C1130.99,-415.79 1202.99,-615.385 1202.99,-615.385"/>
</g>
<!-- storProf3&#45;&gt;Mailbox Server -->
<g id="edge62" class="edge"><title>storProf3:n&#45;&gt;Mailbox Server:s</title>
<path fill="none" stroke="black" d="M1130.99,-415.79C1130.99,-415.79 1106.99,-615.385 1106.99,-615.385"/>
</g>
<!-- calcStorProf&#45;&gt;Grid 01 -->
<g id="edge65" class="edge"><title>calcStorProf:n&#45;&gt;Grid 01:s</title>
<path fill="none" stroke="black" d="M1742.99,-426.79C1742.99,-426.79 1413.99,-615.385 1413.99,-615.385"/>
</g>
<!-- calcStorProf&#45;&gt;Grid 02 -->
<g id="edge68" class="edge"><title>calcStorProf:n&#45;&gt;Grid 02:s</title>
<path fill="none" stroke="black" d="M1742.99,-426.79C1742.99,-426.79 1517.99,-615.385 1517.99,-615.385"/>
</g>
<!-- calcStorProf&#45;&gt;Grid 03 -->
<g id="edge71" class="edge"><title>calcStorProf:n&#45;&gt;Grid 03:s</title>
<path fill="none" stroke="black" d="M1742.99,-426.79C1742.99,-426.79 1620.99,-615.385 1620.99,-615.385"/>
</g>
<!-- calcStorProf&#45;&gt;Grid 04 -->
<g id="edge74" class="edge"><title>calcStorProf:n&#45;&gt;Grid 04:s</title>
<path fill="none" stroke="black" d="M1742.99,-426.79C1742.99,-426.79 1697.99,-615.385 1697.99,-615.385"/>
</g>
<!-- calcStorProf&#45;&gt;Calc Manager -->
<g id="edge78" class="edge"><title>calcStorProf:n&#45;&gt;Calc Manager:s</title>
<path fill="none" stroke="black" d="M1742.99,-426.79C1742.99,-426.79 1868.99,-615.385 1868.99,-615.385"/>
</g>
<!-- vApp1_FE&#45;&gt;vm1 -->
<g id="edge31" class="edge"><title>vApp1_FE:n&#45;&gt;vm1:s</title>
<path fill="none" stroke="black" d="M270.988,-559.885C270.988,-559.885 166.988,-615.385 166.988,-615.385"/>
</g>
<!-- vApp1_FE&#45;&gt;vm2 -->
<g id="edge34" class="edge"><title>vApp1_FE:n&#45;&gt;vm2:s</title>
<path fill="none" stroke="black" d="M270.988,-559.885C270.988,-559.885 270.988,-615.385 270.988,-615.385"/>
</g>
<!-- vApp1_FE&#45;&gt;vm3 -->
<g id="edge37" class="edge"><title>vApp1_FE:n&#45;&gt;vm3:s</title>
<path fill="none" stroke="black" d="M270.988,-559.885C270.988,-559.885 374.988,-615.385 374.988,-615.385"/>
</g>
<!-- vApp2_BE&#45;&gt;vm4 -->
<g id="edge40" class="edge"><title>vApp2_BE:n&#45;&gt;vm4:s</title>
<path fill="none" stroke="black" d="M631.988,-560.885C631.988,-560.885 526.988,-615.385 526.988,-615.385"/>
</g>
<!-- vApp2_BE&#45;&gt;vm5 -->
<g id="edge44" class="edge"><title>vApp2_BE:n&#45;&gt;vm5:s</title>
<path fill="none" stroke="black" d="M631.988,-560.885C631.988,-560.885 664.988,-615.385 664.988,-615.385"/>
</g>
<!-- monitoring&#45;&gt;monitor1 -->
<g id="edge48" class="edge"><title>monitoring:n&#45;&gt;monitor1:s</title>
<path fill="none" stroke="black" d="M842.988,-561.885C842.988,-561.885 948.988,-615.385 948.988,-615.385"/>
</g>
<!-- monitoring&#45;&gt;monitor2 -->
<g id="edge51" class="edge"><title>monitoring:n&#45;&gt;monitor2:s</title>
<path fill="none" stroke="black" d="M842.988,-561.885C842.988,-561.885 842.988,-615.385 842.988,-615.385"/>
</g>
<!-- Mail&#45;&gt;Webmail -->
<g id="edge54" class="edge"><title>Mail:n&#45;&gt;Webmail:s</title>
<path fill="none" stroke="black" d="M1249.99,-543.885C1249.99,-543.885 1299.99,-615.385 1299.99,-615.385"/>
</g>
<!-- Mail&#45;&gt;MTA -->
<g id="edge57" class="edge"><title>Mail:n&#45;&gt;MTA:s</title>
<path fill="none" stroke="black" d="M1249.99,-543.885C1249.99,-543.885 1202.99,-615.385 1202.99,-615.385"/>
</g>
<!-- Mail&#45;&gt;Mailbox Server -->
<g id="edge60" class="edge"><title>Mail:n&#45;&gt;Mailbox Server:s</title>
<path fill="none" stroke="black" d="M1249.99,-543.885C1249.99,-543.885 1106.99,-615.385 1106.99,-615.385"/>
</g>
<!-- Calc vApp&#45;&gt;Grid 01 -->
<g id="edge63" class="edge"><title>Calc vApp:n&#45;&gt;Grid 01:s</title>
<path fill="none" stroke="black" d="M1517.99,-559.885C1517.99,-559.885 1413.99,-615.385 1413.99,-615.385"/>
</g>
<!-- Calc vApp&#45;&gt;Grid 02 -->
<g id="edge66" class="edge"><title>Calc vApp:n&#45;&gt;Grid 02:s</title>
<path fill="none" stroke="black" d="M1517.99,-559.885C1517.99,-559.885 1517.99,-615.385 1517.99,-615.385"/>
</g>
<!-- Calc vApp&#45;&gt;Grid 03 -->
<g id="edge69" class="edge"><title>Calc vApp:n&#45;&gt;Grid 03:s</title>
<path fill="none" stroke="black" d="M1517.99,-559.885C1517.99,-559.885 1620.99,-615.385 1620.99,-615.385"/>
</g>
<!-- Calc vApp&#45;&gt;Grid 04 -->
<g id="edge72" class="edge"><title>Calc vApp:n&#45;&gt;Grid 04:s</title>
<path fill="none" stroke="black" d="M1517.99,-559.885C1517.99,-559.885 1697.99,-615.385 1697.99,-615.385"/>
</g>
<!-- Calc Manag vApp&#45;&gt;Calc Manager -->
<g id="edge75" class="edge"><title>Calc Manag vApp:n&#45;&gt;Calc Manager:s</title>
<path fill="none" stroke="black" d="M1912.99,-579.385C1912.99,-579.385 1868.99,-615.385 1868.99,-615.385"/>
</g>
</g>
</svg>
